<svg width="49" height="44" viewBox="0 0 49 44" fill="none" xmlns="http://www.w3.org/2000/svg">
<g clip-path="url(#clip0_271_1115)">
<path d="M22.1117 39.5282L22.1091 39.5259C15.7648 33.8953 10.6423 29.3435 7.0849 25.0876C3.54591 20.8537 1.75 17.1346 1.75 13.2003L1.75 13.2C1.74974 11.6789 2.05335 10.1729 2.6432 8.77006C3.23305 7.36716 4.09735 6.09537 5.18581 5.02913C6.27427 3.96288 7.56505 3.12358 8.98281 2.56047C10.4006 1.99737 11.9167 1.72181 13.4427 1.75001L13.454 1.75022L13.4654 1.75028C15.307 1.76039 17.1255 2.15945 18.8012 2.92109C20.4769 3.68272 21.9716 4.78958 23.1872 6.16862L24.5 7.6579L25.8128 6.16862C27.0284 4.78958 28.5231 3.68272 30.1988 2.92109C31.8745 2.15945 33.693 1.76039 35.5346 1.75028L35.546 1.75022L35.5573 1.75001C37.0833 1.72181 38.5994 1.99737 40.0172 2.56047C41.435 3.12358 42.7257 3.96288 43.8142 5.02913C44.9026 6.09537 45.767 7.36716 46.3568 8.77006C46.9467 10.1729 47.2503 11.6789 47.25 13.2V13.2003C47.25 17.1451 45.4534 20.8675 41.9146 25.1047C38.3579 29.3634 33.237 33.9181 26.8943 39.5595L26.8895 39.5638L24.5068 41.6624L22.1117 39.5282Z" stroke="black" stroke-width="3.5"/>
</g>
<defs>
<clipPath id="clip0_271_1115">
<rect width="49" height="44" fill="white"/>
</clipPath>
</defs>
</svg>
