<svg width="49" height="44" viewBox="0 0 49 44" fill="none" xmlns="http://www.w3.org/2000/svg">
<g clip-path="url(#clip0_271_1081)">
<path d="M24.5 44.0003L20.9475 40.8348C8.33 29.6368 1.94542e-07 22.2448 1.94542e-07 13.2003C-0.000301306 11.4461 0.349849 9.70942 1.02999 8.09178C1.71013 6.47414 2.70661 5.00799 3.96119 3.779C5.21578 2.55002 6.7033 1.58286 8.33683 0.934062C9.97035 0.28526 11.7171 -0.0321748 13.475 0.000310611C15.5631 0.011769 17.6251 0.464233 19.5253 1.32793C21.4256 2.19163 23.121 3.447 24.5 5.01142C25.879 3.447 27.5744 2.19163 29.4747 1.32793C31.3749 0.464233 33.4369 0.011769 35.525 0.000310611C37.2829 -0.0321748 39.0297 0.28526 40.6632 0.934062C42.2967 1.58286 43.7842 2.55002 45.0388 3.779C46.2934 5.00799 47.2899 6.47414 47.97 8.09178C48.6502 9.70942 49.0003 11.4461 49 13.2003C49 22.2643 40.67 29.649 28.0525 40.8714L24.5 44.0003Z" fill="black"/>
</g>
<defs>
<clipPath id="clip0_271_1081">
<rect width="49" height="44" fill="white"/>
</clipPath>
</defs>
</svg>
