<svg width="27" height="23" viewBox="0 0 27 23" fill="none" xmlns="http://www.w3.org/2000/svg">
<path d="M2 2.81897V18.249L8.10596 20.1299V4.77295L2 2.81396M2 0.813965C2.20762 0.815381 2.41372 0.849094 2.61096 0.91394L8.71704 2.87299C9.1197 3.00217 9.47102 3.25567 9.72058 3.59705C9.97015 3.93842 10.105 4.35008 10.106 4.77295V20.125C10.1059 20.438 10.0324 20.7466 9.89136 21.0261C9.75028 21.3055 9.54555 21.5479 9.2937 21.7338C9.04185 21.9197 8.74988 22.0439 8.44128 22.0964C8.13269 22.1489 7.81611 22.1281 7.51697 22.0359L1.41101 20.155C1.00246 20.0291 0.644928 19.7756 0.390991 19.4316C0.137054 19.0877 6.47607e-05 18.6715 0 18.244V2.81897C0 2.28854 0.210743 1.77986 0.585815 1.40479C0.960888 1.02971 1.46957 0.81897 2 0.81897V0.813965Z" fill="url(#paint0_linear_221_1196)"/>
<path d="M16.106 2.81885L10 4.77783V20.1298L16.106 18.2488V2.81885ZM16.106 0.818849C16.6364 0.818849 17.1451 1.02959 17.5201 1.40466C17.8952 1.77974 18.106 2.28842 18.106 2.81885V18.2488C18.1059 18.6764 17.9689 19.0926 17.715 19.4365C17.461 19.7804 17.1035 20.0339 16.6949 20.1599L10.589 22.0408C10.2898 22.133 9.97326 22.1537 9.66467 22.1013C9.35608 22.0488 9.0641 21.9245 8.81226 21.7386C8.56041 21.5528 8.35568 21.3104 8.2146 21.0309C8.07352 20.7515 8.00005 20.4428 8 20.1298V4.77283C8.00093 4.34996 8.13581 3.9383 8.38538 3.59692C8.63494 3.25555 8.98638 3.00205 9.38904 2.87286L15.495 0.913819C15.6925 0.85067 15.8986 0.81865 16.106 0.818849Z" fill="url(#paint0_linear_221_1196)"/>
<path d="M18 2.81897V18.249L24.106 20.1299V4.77295L18 2.81396M18 0.813965C18.2076 0.815381 18.4137 0.849094 18.611 0.91394L24.717 2.87299C25.1197 3.00217 25.471 3.25567 25.7206 3.59705C25.9701 3.93842 26.105 4.35008 26.106 4.77295V20.125C26.1059 20.438 26.0324 20.7466 25.8914 21.0261C25.7503 21.3055 25.5455 21.5479 25.2937 21.7338C25.0419 21.9197 24.7499 22.0439 24.4413 22.0964C24.1327 22.1489 23.8161 22.1281 23.517 22.0359L17.411 20.155C17.0025 20.0291 16.6449 19.7756 16.391 19.4316C16.1371 19.0877 16.0001 18.6715 16 18.244V2.81897C16 2.28854 16.2107 1.77986 16.5858 1.40479C16.9609 1.02971 17.4696 0.81897 18 0.81897V0.813965Z" fill="url(#paint0_linear_221_1196)"/>
    <defs>
    <linearGradient id="paint0_linear_221_1196" x1="14.25" y1="0.437988" x2="14.25" y2="28.938" gradientUnits="userSpaceOnUse">
        <stop stop-color="#9023FF"/>
        <stop offset="1" stop-color="#0058FF"/>
    </linearGradient>
    </defs>
</svg>
