<svg width="38" height="40" viewBox="0 0 38 40" fill="none" xmlns="http://www.w3.org/2000/svg">
<g filter="url(#filter0_d_105_453)">
<path d="M19.0012 34.8912C15.8832 34.893 12.8348 33.9812 10.2417 32.2712C7.64855 30.5611 5.62738 28.1298 4.43392 25.2848C3.24047 22.4399 2.92839 19.3091 3.53719 16.2889C4.14598 13.2687 5.64828 10.4948 7.85395 8.31813C10.8104 5.39821 14.8202 3.75781 19.0012 3.75781C23.1822 3.75781 27.192 5.39821 30.1485 8.31813C33.1049 11.2381 34.7658 15.1983 34.7658 19.3277C34.7658 23.4571 33.1049 27.4174 30.1485 30.3373C28.6875 31.7866 26.9501 32.9353 25.0367 33.717C23.1232 34.4986 21.0718 34.8977 19.0012 34.8912ZM19.0012 21.5222L24.6583 27.1094L26.8802 24.915L21.2231 19.3277L26.8802 13.7404L24.6583 11.546L19.0012 17.1333L13.3441 11.546L11.1222 13.7404L16.7793 19.3277L11.1222 24.915L13.3441 27.1094L19.0012 21.5237V21.5222Z" fill="white" fill-opacity="0.95" shape-rendering="crispEdges"/>
</g>
<defs>
<filter id="filter0_d_105_453" x="1.23389" y="3.75781" width="35.5317" height="35.1328" filterUnits="userSpaceOnUse" color-interpolation-filters="sRGB">
<feFlood flood-opacity="0" result="BackgroundImageFix"/>
<feColorMatrix in="SourceAlpha" type="matrix" values="0 0 0 0 0 0 0 0 0 0 0 0 0 0 0 0 0 0 127 0" result="hardAlpha"/>
<feOffset dy="2"/>
<feGaussianBlur stdDeviation="1"/>
<feComposite in2="hardAlpha" operator="out"/>
<feColorMatrix type="matrix" values="0 0 0 0 0 0 0 0 0 0 0 0 0 0 0 0 0 0 0.25 0"/>
<feBlend mode="normal" in2="BackgroundImageFix" result="effect1_dropShadow_105_453"/>
<feBlend mode="normal" in="SourceGraphic" in2="effect1_dropShadow_105_453" result="shape"/>
</filter>
</defs>
</svg>
