
<svg width="30" height="26" viewBox="0 0 30 26" fill="none" xmlns="http://www.w3.org/2000/svg">
<path d="M23.9201 23.026C24.113 23.0287 24.3045 22.9932 24.4837 22.9217C24.6629 22.8503 24.8262 22.7442 24.9643 22.6095C25.1025 22.4748 25.2127 22.3142 25.2886 22.1368C25.3646 21.9595 25.4049 21.7689 25.4071 21.576V8.52602H4.59407V21.576C4.59629 21.7689 4.63653 21.9595 4.7125 22.1368C4.78847 22.3142 4.89867 22.4748 5.0368 22.6095C5.17492 22.7442 5.33825 22.8503 5.51744 22.9217C5.69664 22.9932 5.88816 23.0287 6.08107 23.026H23.9201ZM12.5841 11.426H17.4201C17.566 11.4247 17.7064 11.4812 17.8108 11.5831C17.9152 11.685 17.975 11.8241 17.9771 11.97V12.333C17.975 12.4789 17.9152 12.618 17.8108 12.7199C17.7064 12.8219 17.566 12.8784 17.4201 12.877H12.5841C12.4382 12.8784 12.2977 12.8219 12.1933 12.7199C12.089 12.618 12.0292 12.4789 12.0271 12.333V11.97C12.0292 11.8241 12.089 11.685 12.1933 11.5831C12.2977 11.4812 12.4382 11.4247 12.5841 11.426ZM26.1491 7.07601C26.3436 7.07789 26.5309 7.00268 26.6702 6.86682C26.8094 6.73097 26.8892 6.54552 26.8921 6.35101V4.17601C26.8899 3.9831 26.8496 3.79253 26.7736 3.6152C26.6977 3.43786 26.5875 3.27725 26.4493 3.14257C26.3112 3.00788 26.1479 2.90176 25.9687 2.83028C25.7895 2.7588 25.598 2.72337 25.4051 2.72601H4.59407C4.40117 2.72337 4.20963 2.7588 4.03044 2.83028C3.85125 2.90176 3.68792 3.00788 3.5498 3.14257C3.41167 3.27725 3.30147 3.43786 3.2255 3.6152C3.14953 3.79253 3.10929 3.9831 3.10707 4.17601V6.35101C3.10997 6.54552 3.18975 6.73097 3.32898 6.86682C3.4682 7.00268 3.65555 7.07789 3.85007 7.07601H26.1491ZM23.9201 25.313H6.08107C5.08523 25.3167 4.12859 24.9253 3.42105 24.2245C2.71352 23.5237 2.31289 22.5708 2.30707 21.575V8.93801C1.85579 8.67318 1.48132 8.29532 1.22057 7.84167C0.959814 7.38803 0.821779 6.87426 0.820068 6.35101V4.17601C0.825888 3.18019 1.22652 2.22734 1.93405 1.52656C2.64159 0.82577 3.59823 0.43429 4.59407 0.438015H25.4061C26.4019 0.43429 27.3585 0.82577 28.0661 1.52656C28.7736 2.22734 29.1742 3.18019 29.1801 4.17601V6.35101C29.1785 6.87416 29.0406 7.38786 28.78 7.8415C28.5194 8.29514 28.1452 8.67305 27.6941 8.93801V21.576C27.688 22.5717 27.2872 23.5243 26.5797 24.2248C25.8722 24.9254 24.9157 25.3167 23.9201 25.313Z" fill="url(#paint0_linear_221_1196)"/>
    <defs>
    <linearGradient id="paint0_linear_221_1196" x1="14.25" y1="0.437988" x2="14.25" y2="28.938" gradientUnits="userSpaceOnUse">
        <stop stop-color="#9023FF"/>
        <stop offset="1" stop-color="#0058FF"/>
    </linearGradient>
    </defs>
</svg>
