<svg width="30" height="30" viewBox="0 0 29 33" fill="none" xmlns="http://www.w3.org/2000/svg">
<g clip-path="url(#clip0_274_2558)">
<path d="M19.6786 8.25C19.6786 5.40246 17.3599 3.09375 14.5 3.09375C11.6401 3.09375 9.32143 5.40246 9.32143 8.25C9.32143 11.0975 11.6401 13.4062 14.5 13.4062C17.3599 13.4062 19.6786 11.0975 19.6786 8.25ZM6.21429 8.25C6.21429 3.69381 9.92408 0 14.5 0C19.0759 0 22.7857 3.69381 22.7857 8.25C22.7857 12.8062 19.0759 16.5 14.5 16.5C9.92408 16.5 6.21429 12.8062 6.21429 8.25ZM3.19129 29.9062H25.8087C25.2326 25.8264 21.7112 22.6875 17.4583 22.6875H11.5417C7.28884 22.6875 3.76741 25.8264 3.19129 29.9062ZM0 31.0857C0 24.7371 5.16563 19.5938 11.5417 19.5938H17.4583C23.8344 19.5938 29 24.7371 29 31.0857C29 32.1428 28.1391 33 27.0775 33H1.92254C0.860938 33 0 32.1428 0 31.0857Z" fill="#707070"/>
</g>
<defs>
<clipPath id="clip0_274_2558">
<rect width="29" height="33" fill="white"/>
</clipPath>   
</defs>
</svg>
