<svg width="26" height="27" viewBox="0 0 26 27" fill="none" xmlns="http://www.w3.org/2000/svg">
<path d="M23.076 2.01012L1.85097 14.2551C1.66964 14.3544 1.51995 14.5028 1.41909 14.6833C1.31822 14.8637 1.27026 15.069 1.2807 15.2755C1.29114 15.482 1.35956 15.6813 1.47811 15.8507C1.59666 16.0201 1.76055 16.1526 1.95097 16.2331L6.81897 18.2751L19.975 6.68112C20.0269 6.6368 20.0936 6.61341 20.1618 6.6155C20.2301 6.6176 20.2951 6.64502 20.3443 6.69244C20.3935 6.73985 20.4232 6.80387 20.4278 6.87202C20.4323 6.94017 20.4114 7.00757 20.369 7.06112L9.33797 20.5011V24.1871C9.33358 24.4151 9.40014 24.6388 9.52846 24.8273C9.65677 25.0158 9.84049 25.1598 10.0542 25.2393C10.2679 25.3188 10.5011 25.3299 10.7214 25.2711C10.9417 25.2123 11.1383 25.0865 11.284 24.9111L14.192 21.3711L19.898 23.7611C20.051 23.8254 20.2166 23.8542 20.3823 23.8454C20.5481 23.8366 20.7097 23.7904 20.8551 23.7103C21.0004 23.6301 21.1258 23.5181 21.2217 23.3827C21.3176 23.2472 21.3816 23.0918 21.409 22.9281L24.709 3.14612C24.7435 2.94053 24.719 2.72936 24.6381 2.53721C24.5573 2.34505 24.4235 2.17982 24.2524 2.06077C24.0812 1.94173 23.8798 1.87376 23.6715 1.86479C23.4632 1.85582 23.2567 1.90622 23.076 2.01012Z" stroke="url(#paint0_linear_221_1196)" stroke-width="2" stroke-linecap="round" stroke-linejoin="round"/>
    <defs>
    <linearGradient id="paint0_linear_221_1196" x1="14.25" y1="0.437988" x2="14.25" y2="28.938" gradientUnits="userSpaceOnUse">
        <stop stop-color="#9023FF"/>
        <stop offset="1" stop-color="#0058FF"/>
    </linearGradient>
    </defs>
</svg>
