<svg width="29" height="29" viewBox="0 0 29 29" fill="none" xmlns="http://www.w3.org/2000/svg">
    <path d="M27.531 9.59599C27.269 9.37899 21.312 4.58899 20 3.54699C18.772 2.56399 16.668 0.437988 14.25 0.437988C11.832 0.437988 9.761 2.53799 8.5 3.54699C7.136 4.62999 1.2 9.40299 0.975 9.58999C0.670261 9.84055 0.424789 10.1555 0.256212 10.5122C0.0876347 10.8689 0.000136188 11.2585 0 11.653L0 26.266C0 26.9746 0.281513 27.6543 0.782611 28.1554C1.28371 28.6565 1.96334 28.938 2.672 28.938H25.828C26.5367 28.938 27.2163 28.6565 27.7174 28.1554C28.2185 27.6543 28.5 26.9746 28.5 26.266V11.655C28.5 11.2616 28.4132 10.8731 28.2456 10.5172C28.0781 10.1613 27.8341 9.8467 27.531 9.59599ZM25.831 25.933C25.831 26.0216 25.7958 26.1065 25.7332 26.1692C25.6705 26.2318 25.5856 26.267 25.497 26.267H3.006C2.91742 26.267 2.83246 26.2318 2.76983 26.1692C2.70719 26.1065 2.672 26.0216 2.672 25.933V11.813C2.67196 11.7631 2.68307 11.7139 2.70453 11.6689C2.72599 11.6239 2.75724 11.5843 2.796 11.553C3.679 10.838 8.852 6.67999 10.164 5.63799C11.175 4.82999 12.937 3.11099 14.25 3.11099C15.563 3.11099 17.359 4.85599 18.336 5.63799C19.648 6.68099 24.821 10.838 25.704 11.556C25.783 11.618 25.828 11.713 25.828 25.932L25.831 25.933Z" fill="#B2B2B2"/>
    <path d="M17.25 20.938H11.25C10.8358 20.938 10.5 21.2738 10.5 21.688V26.688C10.5 27.1022 10.8358 27.438 11.25 27.438H17.25C17.6642 27.438 18 27.1022 18 26.688V21.688C18 21.2738 17.6642 20.938 17.25 20.938Z" stroke="#B2B2B2" stroke-width="2.5" />
</svg>
