<svg width="24" height="27" viewBox="0 0 24 27" fill="none" xmlns="http://www.w3.org/2000/svg">
<g clip-path="url(#clip0_940_1098)">
<path d="M11.0177 2.51144C11.3833 1.9019 12.1709 1.70468 12.7803 2.07011L21.593 7.35544C22.2024 7.72088 22.3993 8.50857 22.0337 9.11811C21.6682 9.72766 20.8805 9.92488 20.2712 9.55945L19.2557 8.95039L16.5873 14.2894C17.4397 15.7324 17.7503 17.4779 17.3682 19.192L17.3407 19.3159C17.2519 19.7216 16.9724 20.0549 16.5944 20.2169C16.2164 20.3788 15.7792 20.3508 15.4247 20.1381L4.40867 13.5314C4.05409 13.3188 3.82481 12.9518 3.78831 12.5366C3.7518 12.1214 3.91771 11.7199 4.23165 11.454L4.32804 11.3713C5.66022 10.2271 7.3463 9.67904 9.0207 9.75144L12.474 4.88316L11.4584 4.27411C10.8491 3.90868 10.6522 3.12098 11.0177 2.51144ZM8.15415 17.2761L10.3573 18.5974L8.37462 21.9034C8.00906 22.513 7.22144 22.7102 6.61212 22.3448C6.0028 21.9794 5.80586 21.1917 6.17143 20.5821L8.15415 17.2761Z" fill="black"/>
</g>
<defs>
<clipPath id="clip0_940_1098">
<rect width="15.4199" height="20.5599" fill="white" transform="translate(10.5742 0.74707) rotate(30.9526)"/>
</clipPath>
</defs>
</svg>
